<svg xmlns="http://www.w3.org/2000/svg" version="1.1" xmlns:xlink="http://www.w3.org/1999/xlink" xmlns:svgjs="http://svgjs.dev/svgjs" width="100%" height="100%" viewBox="0 0 1000 600"><rect width="1000" height="600" x="0" y="0" fill="#f6e05e"/><g><circle r="166.66666666666666" cx="222.22222391764322" cy="244.4444359673398" fill="#f6e05e" transform="matrix(2.2499999313354513,0,0,2.2499999313354517,0,-249.99999847412175)"/><path d="M188.09664069721026 308.23552130088945L171.4006322045842 318.38810291503466Q169.7280970831788 318.38810291503466 166.76448221893412 317.4197931079051Q163.80086735468942 316.4808260222038 162.128332233284 314.36815007937594L162.128332233284 314.36815007937594Q156.40650155479176 302.74843239382255 150.59664271201504 286.7859919369006Q144.78678386923832 270.8528942014069 139.62246489788123 252.45500786594724Q134.428803205096 234.08646425191577 130.73162030514715 214.95500988075204Q127.03443740519835 195.85289823101644 125.56730133379008 178.10055176697648L125.56730133379008 178.10055176697648L143.93584494782152 169.44444894566772L149.4522765763166 172.81886190990667Q149.01213575489413 178.10055176697648 148.80673670489696 183.4702697883307Q148.6013376548998 188.8693305311131 148.6013376548998 194.15102038818284L148.6013376548998 194.15102038818284Q148.6013376548998 223.0829437163538 154.29382561196388 250.0195619874095Q160.0156562904561 276.9561802584652 169.08255721175917 304.0101694152336L169.08255721175917 304.0101694152336Q170.78443505459276 293.24139065109694 174.0414771331191 279.8317669584254Q177.32786193307362 266.3928005443257 181.75861286872657 251.83881071595576Q186.18936380437952 237.25547816615764 191.38302549716477 222.8775446663566Q196.54734446852186 208.52895388798382 202.15180426130144 195.85289823101644Q207.756264054081 183.17684257404903 213.24335296114788 173.43505905989815L213.24335296114788 173.43505905989815Q215.15062985397861 171.76252393849273 218.40767193250497 170.58881508136614Q221.6940567324595 169.44444894566772 223.60133362529024 169.44444894566772L223.60133362529024 169.44444894566772Q224.45227254670704 169.44444894566772 224.45227254670704 170.50078691708165L224.45227254670704 170.50078691708165Q224.45227254670704 172.3787210884842 220.52034787533285 181.68036378121263Q216.6177659253869 190.98200647394103 210.80790708261017 208.00078490227682Q204.99804823983345 224.99022060918455 198.77739129706242 249.93153382312502Q192.5273916328632 274.84350431563735 188.09664069721026 308.23552130088945L188.09664069721026 308.23552130088945ZM261.62950059619243 319.44444088644855L261.62950059619243 319.44444088644855Q260.133021803356 319.44444088644855 260.133021803356 318.79890101502895L260.133021803356 318.79890101502895Q262.89123761760357 302.5430333438254 263.83020470330484 287.3141609226076Q264.7985145104343 272.11463122281793 264.7985145104343 258.1768385444394L264.7985145104343 258.1768385444394Q264.7985145104343 251.83881071595576 264.47574457472444 241.27543100181626Q264.1529746390146 230.71205128767676 263.62480565330765 219.1803617664078Q263.0966366676007 207.67801496656702 262.24569774618385 198.17097322384146L262.24569774618385 198.17097322384146Q259.51682465336455 198.37637227383865 256.8759797248296 198.37637227383865Q254.23513479629477 198.37637227383865 251.47691898204727 198.37637227383865L251.47691898204727 198.37637227383865Q240.2973421179163 198.37637227383865 228.88302348236 196.46909538100792L228.88302348236 196.46909538100792L225.50861051812097 190.98200647394103L233.51917346801008 172.81886190990667Q241.1189383179049 176.83881474556534 250.86072183205573 178.42332170268628Q260.5731626247785 180.00782865980722 271.9874812603348 180.00782865980722L271.9874812603348 180.00782865980722Q285.4851331172908 180.00782865980722 297.95578972426097 178.10055176697648Q310.42644633123126 176.19327487414574 318.0262111811261 174.28599798131495L318.0262111811261 174.28599798131495Q318.8771501025428 174.28599798131495 318.8771501025428 176.19327487414574L318.8771501025428 176.19327487414574Q318.8771501025428 177.66041094555396 318.0262111811261 180.30125587408884Q317.17527225970923 182.9421008026237 315.70813618830095 184.233180545463L315.70813618830095 184.233180545463Q307.4628314669866 187.607593509702 299.4522685170974 190.33646660252137Q291.4123628457802 193.0946824167689 283.37245717446285 195.00195930959964L283.37245717446285 195.00195930959964Q282.75626002447143 207.67801496656702 281.787950217342 224.05125352348327Q280.8489831316407 240.42449208039946 279.2644761745197 257.64866955873254Q277.6799692173988 274.84350431563735 275.56729327457094 290.2777757868523Q273.454617331743 305.7120472580672 270.6964015174955 316.4808260222038L270.6964015174955 316.4808260222038Q269.2292654460872 317.9479620936121 266.2656505818425 318.68153012931623Q263.30203571759785 319.44444088644855 261.62950059619243 319.44444088644855Z " fill="#343a40" transform="matrix(2.2499999313354513,0,0,2.2499999313354517,0,-249.99999847412175)"/><path d="MNaN 244.44444783528658 " fill="#37bc9b" transform="matrix(2.2499999313354513,0,0,2.2499999313354517,0,-249.99999847412175)"/></g></svg>